<?xml version="1.0" encoding="UTF-8" standalone="no"?>

<svg
   width="3600"
   height="1000"
   viewBox="0 0 952.49997 264.58334"
   version="1.1"
   id="svg1"
   xml:space="preserve"
   xmlns="http://www.w3.org/2000/svg"
   xmlns:svg="http://www.w3.org/2000/svg">
   <defs>
     <style>
       .logo-path { fill: #ffffff; }
     </style>
   </defs>
   <g id="layer1">
    <g id="g7" transform="matrix(2.6419802,0,0,2.6419802,14.767981,6.6581855)">
        <path id="path6-0"
        d="m 317.54808,7.2760416 c -6.3941,0 -10.50104,3.6853104 -12.21837,7.1199784 -1.71728,3.434563 -1.67225,6.770442 -1.67225,6.770646 0,0 -0.0451,7.304728 3.65662,14.708145 0.83126,1.662518 1.88285,3.337854 3.17655,4.936133 0.29629,0.366046 0.63255,0.71745 0.95447,1.074354 0.0328,0.03636 0.0641,0.0733 0.0971,0.109553 a 3.3072916,3.3072916 0 0 0 0.25011,0.254249 l 2.3859,2.115632 1.50379,1.333254 5.00589,4.439005 7.23367,5.976895 c 0.73164,0.674309 1.38634,1.391904 1.9761,2.138889 1.02361,1.296469 1.85222,2.681232 2.55179,4.080369 2.91271,5.825435 2.95795,11.749545 2.95796,11.750188 0,4.189236 -1.60636,5.373958 -3.46336,6.302457 -1.857,0.9285 -3.81269,0.973585 -3.81269,0.973585 H 306.9647 a 3.3072916,3.3072916 0 0 0 -3.30729,3.307292 3.3072916,3.3072916 0 0 0 3.30729,3.307291 h 21.16667 c 0,0 3.33597,0.04509 6.77064,-1.672248 3.3499,-1.674951 6.91234,-5.640089 7.08742,-11.766209 a 3.3072916,3.3072916 0 0 0 0.0326,-0.452168 c 0,0 0.0451,-7.304727 -3.65662,-14.708145 -0.83128,-1.662562 -1.88331,-3.337814 -3.17707,-4.936132 -0.29843,-0.368697 -0.63673,-0.722691 -0.96118,-1.082106 -0.0332,-0.03682 -0.0647,-0.07439 -0.0982,-0.111104 a 3.3072916,3.3072916 0 0 0 -0.24184,-0.244946 l -2.38642,-2.115632 -1.50379,-1.33377 -5.00538,-4.438489 -7.23366,-5.976895 c -0.73171,-0.674373 -1.38629,-1.391827 -1.97611,-2.138889 -1.02354,-1.296424 -1.85224,-2.681287 -2.55178,-4.08037 -2.9128,-5.825601 -2.95796,-11.749887 -2.95796,-11.750188 0,0 0.0451,-1.955688 0.97359,-3.812687 0.9285,-1.856998 2.11322,-3.463354 6.30245,-3.463354 h 21.16667 a 3.3072916,3.3072916 0 0 0 3.30729,-3.307292 3.3072916,3.3072916 0 0 0 -3.30729,-3.3072914 z" />
        <path id="path1-9"
        d="m 21.214235,7.2760416 c 0,0 -3.335977,-0.045085 -6.770646,1.6722492 C 11.093684,10.623244 7.5312358,14.588359 7.3561669,20.714498 a 3.3072916,3.3072916 0 0 0 -0.032556,0.452168 v 52.916666 c 0,0 -0.045085,3.335978 1.6722492,6.770645 1.7173339,3.43467 5.8242779,7.11998 12.2183749,7.11998 h 21.166667 a 3.3072916,3.3072916 0 0 0 3.307291,-3.307291 3.3072916,3.3072916 0 0 0 -3.307291,-3.307292 H 21.214235 c -4.189236,0 -5.373958,-1.606357 -6.302457,-3.463353 -0.928499,-1.857 -0.973584,-3.812689 -0.973584,-3.812689 v -2.335257 c 3.428312,-0.583189 9.047345,-2.135148 14.552083,-6.263701 8.784167,-6.588125 17.197916,-19.770254 17.197916,-44.317708 0,0 0.04509,-3.335977 -1.672248,-6.770646 C 42.340992,11.046115 38.375877,7.4836667 32.249736,7.3085978 a 3.3072916,3.3072916 0 0 0 -0.452167,-0.032556 z m 0,6.6145834 h 10.583334 c 4.189235,0 5.373957,1.606356 6.302457,3.463354 0.928348,1.856696 0.973568,3.812051 0.973584,3.812687 0,23.077546 -7.46125,33.707917 -14.552083,39.026042 -4.014921,3.011191 -7.936535,4.309176 -10.583333,4.868436 V 21.166666 c 0,-4.189236 1.606356,-5.373958 3.463354,-6.302457 1.856999,-0.928499 3.812687,-0.973584 3.812687,-0.973584 z" />
        <path id="path3"
        d="m 254.04829,87.829555 a 3.3072916,3.3072916 0 0 0 3.3073,-3.30729 3.3072916,3.3072916 0 0 0 -3.3073,-3.3073 h -21.16666 c 0,0 -1.95569,-0.0451 -3.81269,-0.97358 -1.857,-0.9285 -3.46335,-2.11322 -3.46335,-6.30246 V 10.438929 a 3.3072916,3.3072916 0 0 0 -3.3073,-3.30729 3.3072916,3.3072916 0 0 0 -3.30729,3.30729 v 63.499996 c 0,6.3941 3.68531,10.50104 7.11998,12.21838 3.43467,1.71733 6.77065,1.67225 6.77065,1.67225 z" />
    <g id="g6" transform="translate(-28.449343,-13.277645)">
        <path id="path1-3"
        d="m 208.41406,20.40929 a 3.3072916,3.3072916 0 0 0 -3.30729,3.307292 c 0,0 -0.0397,12.324668 4.13825,24.858431 2.08896,6.266883 5.24067,12.678988 10.22521,17.663521 4.3402,4.340208 10.16676,7.498358 17.38654,8.242388 v 12.73566 c 0,4.18923 -1.60636,5.37396 -3.46336,6.30246 -1.857,0.9285 -3.81268,0.97358 -3.81268,0.97358 h -21.16667 a 3.3072916,3.3072916 0 0 0 -3.30729,3.30729 3.3072916,3.3072916 0 0 0 3.30729,3.307288 h 21.16667 c 0,0 3.33597,0.0451 6.77064,-1.672238 3.43467,-1.71734 7.11998,-5.82428 7.11998,-12.21838 v -15.875 -47.625 a 3.3072916,3.3072916 0 0 0 -3.30729,-3.307292 3.3072916,3.3072916 0 0 0 -3.30729,3.307292 V 67.83792 c -5.39207,-0.664384 -9.40703,-2.973315 -12.70982,-6.276103 -3.94516,-3.945154 -6.74656,-9.4393 -8.62635,-15.078666 -3.75958,-11.278737 -3.79925,-22.766569 -3.79925,-22.766569 a 3.3072916,3.3072916 0 0 0 -3.30729,-3.307292 z" />
        <path id="path3-0"
        d="m 166.08073,20.40929 a 3.3072916,3.3072916 0 0 0 -3.3073,3.307292 3.3072916,3.3072916 0 0 0 3.3073,3.307292 h 5.29166 c 4.18924,0 5.37396,1.606356 6.30246,3.463354 0.92841,1.856813 0.97358,3.812297 0.97358,3.812687 v 63.499997 a 3.3072916,3.3072916 0 0 0 3.30729,3.307288 3.3072916,3.3072916 0 0 0 3.3073,-3.307288 V 34.299915 c 0,-0.01488 -4e-5,-0.02964 0,-0.04444 0.0113,-4.153123 1.61295,-5.332815 3.46335,-6.258016 1.857,-0.928499 3.81269,-0.973584 3.81269,-0.973584 h 5.29167 a 3.3072916,3.3072916 0 0 0 3.30729,-3.307292 3.3072916,3.3072916 0 0 0 -3.30729,-3.307292 h -5.29167 c 0,0 -3.33598,-0.04508 -6.77065,1.67225 -1.30823,0.654119 -2.65284,1.654895 -3.8163,2.996716 -2.17161,-2.534252 -5.71324,-4.668966 -10.57972,-4.668966 z" />
    </g>
        <path id="path5"
         d="m 74.131107,87.82939 c 0,0 3.335977,0.04509 6.770646,-1.672249 3.349905,-1.674954 6.912353,-5.640069 7.087422,-11.766208 a 3.3072916,3.3072916 0 0 0 0.03256,-0.452168 V 21.022099 c 0,0 0.04509,-3.335978 -1.672249,-6.770645 C 84.632148,10.816784 80.525204,7.1314741 74.131107,7.1314741 H 52.96444 a 3.3072916,3.3072916 0 0 0 -3.307291,3.3072909 3.3072916,3.3072916 0 0 0 3.307291,3.307292 h 21.166667 c 4.189236,0 5.373958,1.606357 6.302457,3.463353 0.928499,1.857 0.973584,3.812689 0.973584,3.812689 v 2.335257 c -3.428312,0.583189 -9.047345,2.135148 -14.552083,6.263701 -8.784167,6.588125 -17.197916,19.770254 -17.197916,44.317708 0,0 -0.04509,3.335977 1.672248,6.770646 1.674953,3.349905 5.640068,6.912354 11.766209,7.087423 a 3.3072916,3.3072916 0 0 0 0.452167,0.03256 z m 0,-6.614584 H 63.547773 c -4.189235,0 -5.373957,-1.606356 -6.302457,-3.463354 -0.928348,-1.856696 -0.973568,-3.812051 -0.973584,-3.812687 0,-23.077546 7.46125,-33.707917 14.552083,-39.026042 4.014921,-3.011191 7.936535,-4.309176 10.583333,-4.868436 v 43.894478 c 0,4.189236 -1.606356,5.373958 -3.463354,6.302457 -1.856999,0.928499 -3.812687,0.973584 -3.812687,0.973584 z" />
        <path id="path6"
         d="m 105.88133,7.1315863 c -6.394112,0 -10.501056,3.6853107 -12.21839,7.1199787 -1.717281,3.434563 -1.672251,6.770442 -1.672249,6.770646 0,0 -0.04509,7.304728 3.656624,14.708145 0.831257,1.662518 1.882844,3.337854 3.17655,4.936133 0.296291,0.366046 0.632545,0.71745 0.954464,1.074354 0.0328,0.03636 0.06408,0.0733 0.09715,0.109553 a 3.3072916,3.3072916 0 0 0 0.250121,0.254249 l 2.38591,2.115632 1.50378,1.333254 5.0059,4.439005 7.23366,5.976895 c 0.73164,0.674309 1.38634,1.391904 1.97611,2.138889 1.0236,1.296469 1.85221,2.681232 2.55178,4.080369 2.91272,5.825435 2.95796,11.749545 2.95796,11.750188 0,4.189236 -1.60635,5.373958 -3.46335,6.302457 -1.857,0.9285 -3.81269,0.973585 -3.81269,0.973585 H 95.297983 a 3.3072916,3.3072916 0 0 0 -3.307292,3.307292 3.3072916,3.3072916 0 0 0 3.307292,3.307291 h 21.166677 c 0,0 3.33598,0.04509 6.77065,-1.672248 3.3499,-1.674951 6.91234,-5.640089 7.08742,-11.766209 a 3.3072916,3.3072916 0 0 0 0.0326,-0.452168 c 0,0 0.0451,-7.304727 -3.65662,-14.708145 -0.83128,-1.662562 -1.88331,-3.337814 -3.17707,-4.936132 -0.29844,-0.368697 -0.63674,-0.722691 -0.96118,-1.082106 -0.0332,-0.03682 -0.0647,-0.07439 -0.0982,-0.111104 a 3.3072916,3.3072916 0 0 0 -0.24185,-0.244946 l -2.38641,-2.115632 -1.50379,-1.33377 -5.00538,-4.438489 -7.23367,-5.976895 c -0.73171,-0.674373 -1.38629,-1.391827 -1.9761,-2.138889 -1.02355,-1.296424 -1.85224,-2.681287 -2.55178,-4.08037 -2.912816,-5.825601 -2.957973,-11.749887 -2.957975,-11.750188 0,0 0.04509,-1.955688 0.973584,-3.812687 0.928511,-1.856998 2.113231,-3.463354 6.302471,-3.463354 h 21.16667 a 3.3072916,3.3072916 0 0 0 3.30729,-3.307292 3.3072916,3.3072916 0 0 0 -3.30729,-3.3072917 z" />
        <path id="path7"
         d="m 275.21475,7.2760416 c 0,0 -3.33598,-0.045085 -6.77065,1.6722492 -3.3499,1.6749532 -6.91235,5.6400682 -7.08742,11.7662072 a 3.3072916,3.3072916 0 0 0 -0.0325,0.452168 v 52.916666 c 0,0 -0.0451,3.335978 1.67224,6.770645 1.71734,3.43467 5.82428,7.11998 12.21838,7.11998 h 21.16667 a 3.3072916,3.3072916 0 0 0 3.30729,-3.307291 3.3072916,3.3072916 0 0 0 -3.30729,-3.307292 H 275.2148 c -4.18924,0 -5.37396,-1.606357 -6.30246,-3.463353 -0.9285,-1.857 -0.97358,-3.812689 -0.97358,-3.812689 v -2.335257 c 3.42831,-0.583189 9.04734,-2.135148 14.55208,-6.263701 8.78417,-6.588125 17.19792,-19.770254 17.19792,-44.317708 0,0 0.0451,-3.335977 -1.67225,-6.770646 -1.67495,-3.349905 -5.64007,-6.9123533 -11.76621,-7.0874222 a 3.3072916,3.3072916 0 0 0 -0.45217,-0.032556 z m 0,6.6145834 h 10.58333 c 4.18924,0 5.37396,1.606356 6.30246,3.463354 0.92835,1.856696 0.97357,3.812051 0.97358,3.812687 0,23.077546 -7.46125,33.707917 -14.55208,39.026042 -4.01492,3.011191 -7.93653,4.309176 -10.58333,4.868436 V 21.166666 c 0,-4.189236 1.60635,-5.373958 3.46335,-6.302457 1.857,-0.928499 3.81269,-0.973584 3.81269,-0.973584 z" />
    </g>
   </g>
</svg>
