<svg viewBox="0 0 2000 2000" xmlns="http://www.w3.org/2000/svg" xml:space="preserve" style="fill-rule:evenodd;clip-rule:evenodd;stroke-linecap:round;stroke-linejoin:round;stroke-miterlimit:1.5"><path d="M200 1344.17V1696c0 57.4 46.601 104 104 104h442c1.339 0 2.673-.02 4-.08v.08h171.499C885.93 1859.85 820.616 1900 746 1900H304c-112.591 0-204-91.41-204-204V304c0-112.591 91.409-204 204-204h442c112.591 0 204 91.409 204 204v196c0 144.61-36.19 280.833-100 400.1-128.268 239.75-368.14 410.98-650 444.07M850 500V304c0-57.399-46.601-104-104-104H304c-57.399 0-104 46.601-104 104v939.38C566.732 1194.43 850 880.033 850 500m200 1000c0-144.61 36.19-280.83 100-400.1 128.27-239.747 368.14-410.975 650-444.068V304c0-57.399-46.6-104-104-104h-442c-1.34 0-2.67.025-4 .076V200h-171.5c35.57-59.853 100.88-100 175.5-100h442c112.59 0 204 91.409 204 204v1392c0 112.59-91.41 204-204 204h-442c-112.59 0-204-91.41-204-204zm100 0v196c0 57.4 46.6 104 104 104h442c57.4 0 104-46.6 104-104V756.621c-366.73 48.951-650 363.349-650 743.379" style="fill:#555;stroke:#555;stroke-width:70px" transform="translate(166.667 166.667)scale(.83333)"/></svg>