<?xml version="1.0" encoding="UTF-8" standalone="no"?>
<!DOCTYPE svg PUBLIC "-//W3C//DTD SVG 1.1//EN" "http://www.w3.org/Graphics/SVG/1.1/DTD/svg11.dtd">
<svg width="100%" height="100%" viewBox="0 0 1080 1080" version="1.1" xmlns="http://www.w3.org/2000/svg" xmlns:xlink="http://www.w3.org/1999/xlink" xml:space="preserve" xmlns:serif="http://www.serif.com/" style="fill-rule:evenodd;clip-rule:evenodd;stroke-linejoin:round;stroke-miterlimit:2;">
    <g transform="matrix(1,0,0,1,46.7003,-11.1982)">
        <g id="emojione-palette.svg" transform="matrix(1.07926,0,0,1.07926,447.599,497)">
            <g transform="matrix(1,0,0,1,-400,-400)">
                <path d="M620,295C730,106.25 503.75,-16.25 216.25,115C40,196.25 -82.5,446.25 162.5,661.25C336.25,813.75 775,727.5 775,552.5C775,358.75 503.75,492.5 620,295M681.25,602.5C646.25,632.5 591.25,632.5 556.25,602.5C521.25,572.5 521.25,546.25 556.25,516.25C591.25,486.25 646.25,486.25 681.25,516.25C716.25,546.25 715,572.5 681.25,602.5" style="fill:#f6c799;fill-rule:nonzero;"/>
                <path d="M415,563.75C376.25,533.75 315,533.75 276.25,563.75C237.5,593.75 237.5,641.25 276.25,671.25C315,701.25 376.25,701.25 415,671.25C452.5,641.25 452.5,592.5 415,563.75" style="fill:#2caece;fill-rule:nonzero;"/>
                <path d="M245,420C202.5,400 145,412.5 115,448.75C85,485 95,530 137.5,550C180,570 237.5,557.5 267.5,521.25C297.5,485 287.5,440 245,420" style="fill:#fdf516;fill-rule:nonzero;"/>
                <path d="M212.5,257.5C176.25,237.5 122.5,246.25 95,277.5C66.25,308.75 73.75,350 110,368.75C146.25,388.75 200,380 227.5,348.75C255,317.5 248.75,277.5 212.5,257.5" style="fill:#f55;fill-rule:nonzero;"/>
                <path d="M355,135C320,115 268.75,122.5 241.25,152.5C213.75,182.5 218.75,221.25 255,241.25C290,261.25 341.25,253.75 368.75,223.75C396.25,193.75 390,153.75 355,135" style="fill:#83bf4f;fill-rule:nonzero;"/>
                <path d="M558.75,121.25C531.25,98.75 485,93.75 452.5,108.75C421.25,123.75 417.5,155 445,177.5C472.5,200 518.75,205 551.25,190C582.5,173.75 585,143.75 558.75,121.25" style="fill:#9156b7;fill-rule:nonzero;"/>
                <path d="M500,526.25C476.25,552.5 356.25,576.25 356.25,576.25C356.25,576.25 403.75,532.5 425,461.25C435,427.5 483.75,427.5 505,446.25C526.25,463.75 523.75,500 500,526.25" style="fill:#947151;fill-rule:nonzero;"/>
                <path d="M733.75,153.75C746.25,152.5 770,173.75 771.25,185C775,238.75 550,431.25 550,431.25L512.5,400C512.5,400 678.75,157.5 733.75,153.75" style="fill:#666;fill-rule:nonzero;"/>
                <path d="M480,436.25L517.5,467.5L550,431.25L512.5,400L480,436.25Z" style="fill:#ccc;fill-rule:nonzero;"/>
            </g>
        </g>
        <g transform="matrix(0.394748,0,0,0.394748,569.721,598.523)">
            <g id="emojione-blue.svg" transform="matrix(1.07926,0,0,1.07926,540,540)">
                <g transform="matrix(1,0,0,1,-400,-400)">
                    <circle cx="400" cy="400" r="375" style="fill:#2962ff;"/>
                </g>
            </g>
            <g transform="matrix(1.80645,0,0,1.80645,-182.581,-182.593)">
                <path d="M316,376.006C302.745,376.006 292,386.752 292,400.006C292,413.264 302.745,424.006 316,424.006L316,376.006ZM400,424.006C413.254,424.006 424,413.264 424,400.006C424,386.752 413.254,376.006 400,376.006L400,424.006ZM400,376.006C386.746,376.006 376,386.752 376,400.006C376,413.264 386.746,424.006 400,424.006L400,376.006ZM484,424.006C497.254,424.006 508,413.264 508,400.006C508,386.752 497.254,376.006 484,376.006L484,424.006ZM424,400.006C424,386.752 413.254,376.006 400,376.006C386.746,376.006 376,386.752 376,400.006L424,400.006ZM376,484.006C376,497.264 386.746,508.006 400,508.006C413.254,508.006 424,497.264 424,484.006L376,484.006ZM376,400.006C376,413.264 386.746,424.006 400,424.006C413.254,424.006 424,413.264 424,400.006L376,400.006ZM424,316.008C424,302.753 413.254,292.008 400,292.008C386.746,292.008 376,302.753 376,316.008L424,316.008ZM316,424.006L400,424.006L400,376.006L316,376.006L316,424.006ZM400,424.006L484,424.006L484,376.006L400,376.006L400,424.006ZM376,400.006L376,484.006L424,484.006L424,400.006L376,400.006ZM424,400.006L424,316.008L376,316.008L376,400.006L424,400.006Z" style="fill:#fff;fill-rule:nonzero;"/>
            </g>
        </g>
    </g>
</svg>